simulation
nRows=61
nColumns=15
endheader
time  TH_x TH_y TH_z SC_y  SC_z  SC_x  AC_y  AC_z  AC_x  GH_y  GH_z  GH_yy  EL_x  PS_y
0.500040  0.000000  0.000000  0.000000  -42.041255  12.053568  -20.000000  34.145674  22.170842  23.537920  51.683556  28.027585  -54.698399  11.520472  125.735744
0.500121  0.000000  0.000000  0.000000  -42.041255  12.053568  -15.000000  35.699019  19.307031  19.154550  51.683556  28.027585  -54.698399  11.520472  125.735744
0.500202  0.000000  0.000000  0.000000  -42.041255  12.053568  -10.000000  36.994779  16.342257  14.924651  51.683556  28.027585  -54.698399  11.520472  125.735744
0.500283  0.000000  0.000000  0.000000  -42.041255  12.053568  -5.000000  38.044655  13.295742  10.822915  51.683556  28.027585  -54.698399  11.520472  125.735744
0.500363  0.000000  0.000000  0.000000  -42.041255  12.053568  0.000000  38.858957  10.185171  6.824045  51.683556  28.027585  -54.698399  11.520472  125.735744
0.500444  0.000000  0.000000  0.000000  -42.041255  12.053568  5.000000  39.446145  7.026988  2.903033  51.683556  28.027585  -54.698399  11.520472  125.735744
0.500525  0.000000  0.000000  0.000000  -42.041255  12.053568  10.000000  39.812555  3.836678  -0.964778  51.683556  28.027585  -54.698399  11.520472  125.735744
0.500605  0.000000  0.000000  0.000000  -42.041255  12.053568  15.000000  39.962241  0.629072  -4.803723  51.683556  28.027585  -54.698399  11.520472  125.735744
0.500686  0.000000  0.000000  0.000000  -42.041255  12.053568  20.000000  39.896871  -2.581352  -8.637949  51.683556  28.027585  -54.698399  11.520472  125.735744
0.500767  0.000000  0.000000  0.000000  -42.041255  12.053568  25.000000  39.615716  -5.780178  -12.491567  51.683556  28.027585  -54.698399  11.520472  125.735744
0.500848  0.000000  0.000000  0.000000  -42.041255  12.053568  30.000000  39.115641  -8.952744  -16.388824  51.683556  28.027585  -54.698399  11.520472  125.735744
0.500928  0.000000  0.000000  0.000000  -42.041255  12.053568  35.000000  38.391215  -12.083872  -20.354227  51.683556  28.027585  -54.698399  11.520472  125.735744
0.501009  0.000000  0.000000  0.000000  -42.041255  12.053568  40.000000  37.434757  -15.157516  -24.412667  51.683556  28.027585  -54.698399  11.520472  125.735744
0.501090  0.000000  0.000000  0.000000  -42.041255  12.053568  45.000000  36.236651  -18.156505  -28.589334  51.683556  28.027585  -54.698399  11.520472  125.735744
0.501170  0.000000  0.000000  0.000000  -42.041255  12.053568  50.000000  34.785672  -21.062271  -32.909582  51.683556  28.027585  -54.698399  11.520472  125.735744
0.501251  0.000000  0.000000  0.000000  -57.057006  0.700499  -20.000000  49.318582  29.707615  23.139478  43.843572  37.654214  -16.951650  28.012428  124.475662
0.501332  0.000000  0.000000  0.000000  -57.057006  0.700499  -15.000000  51.007567  25.866845  19.519500  43.843572  37.654214  -16.951650  28.012428  124.475662
0.501413  0.000000  0.000000  0.000000  -57.057006  0.700499  -10.000000  52.382154  21.942009  16.130044  43.843572  37.654214  -16.951650  28.012428  124.475662
0.501493  0.000000  0.000000  0.000000  -57.057006  0.700499  -5.000000  53.476695  17.951432  12.924305  43.843572  37.654214  -16.951650  28.012428  124.475662
0.501574  0.000000  0.000000  0.000000  -57.057006  0.700499  0.000000  54.318192  13.910612  9.861071  43.843572  37.654214  -16.951650  28.012428  124.475662
0.501655  0.000000  0.000000  0.000000  -57.057006  0.700499  5.000000  54.927118  9.832900  6.903636  43.843572  37.654214  -16.951650  28.012428  124.475662
0.501735  0.000000  0.000000  0.000000  -57.057006  0.700499  10.000000  55.318085  5.730142  4.018550  43.843572  37.654214  -16.951650  28.012428  124.475662
0.501816  0.000000  0.000000  0.000000  -57.057006  0.700499  15.000000  55.500355  1.613157  1.174766  43.843572  37.654214  -16.951650  28.012428  124.475662
0.501897  0.000000  0.000000  0.000000  -57.057006  0.700499  20.000000  55.478221  -2.507783  -1.657510  43.843572  37.654214  -16.951650  28.012428  124.475662
0.501978  0.000000  0.000000  0.000000  -57.057006  0.700499  25.000000  55.251174  -6.622566  -4.507698  43.843572  37.654214  -16.951650  28.012428  124.475662
0.502058  0.000000  0.000000  0.000000  -57.057006  0.700499  30.000000  54.813840  -10.720832  -7.405797  43.843572  37.654214  -16.951650  28.012428  124.475662
0.502139  0.000000  0.000000  0.000000  -57.057006  0.700499  35.000000  54.155869  -14.791585  -10.383260  43.843572  37.654214  -16.951650  28.012428  124.475662
0.502220  0.000000  0.000000  0.000000  -57.057006  0.700499  40.000000  53.261364  -18.822692  -13.474179  43.843572  37.654214  -16.951650  28.012428  124.475662
0.502300  0.000000  0.000000  0.000000  -57.057006  0.700499  45.000000  52.108551  -22.800396  -16.716131  43.843572  37.654214  -16.951650  28.012428  124.475662
0.502381  0.000000  0.000000  0.000000  -57.057006  0.700499  50.000000  50.668885  -26.708654  -20.151448  43.843572  37.654214  -16.951650  28.012428  124.475662
0.502462  0.000000  0.000000  0.000000  -34.728176  21.596608  -20.000000  31.155975  35.234439  29.621222  33.930079  46.773484  -52.906543  13.980904  127.464392
0.502543  0.000000  0.000000  0.000000  -34.728176  21.596608  -15.000000  33.988128  32.540608  24.545396  33.930079  46.773484  -52.906543  13.980904  127.464392
0.502623  0.000000  0.000000  0.000000  -34.728176  21.596608  -10.000000  36.453704  29.655064  19.775315  33.930079  46.773484  -52.906543  13.980904  127.464392
0.502704  0.000000  0.000000  0.000000  -34.728176  21.596608  -5.000000  38.575641  26.608502  15.278318  33.930079  46.773484  -52.906543  13.980904  127.464392
0.502785  0.000000  0.000000  0.000000  -34.728176  21.596608  0.000000  40.378036  23.428073  11.019669  33.930079  46.773484  -52.906543  13.980904  127.464392
0.502865  0.000000  0.000000  0.000000  -34.728176  21.596608  5.000000  41.884026  20.137685  6.964494  33.930079  46.773484  -52.906543  13.980904  127.464392
0.502946  0.000000  0.000000  0.000000  -34.728176  21.596608  10.000000  43.114587  16.758421  3.078845  33.930079  46.773484  -52.906543  13.980904  127.464392
0.503027  0.000000  0.000000  0.000000  -34.728176  21.596608  15.000000  44.087690  13.308982  -0.669746  33.930079  46.773484  -52.906543  13.980904  127.464392
0.503108  0.000000  0.000000  0.000000  -34.728176  21.596608  20.000000  44.818041  9.806165  -4.312202  33.930079  46.773484  -52.906543  13.980904  127.464392
0.503188  0.000000  0.000000  0.000000  -34.728176  21.596608  25.000000  45.316906  6.265315  -7.878030  33.930079  46.773484  -52.906543  13.980904  127.464392
0.503269  0.000000  0.000000  0.000000  -34.728176  21.596608  30.000000  45.592072  2.700724  -11.395608  33.930079  46.773484  -52.906543  13.980904  127.464392
0.503350  0.000000  0.000000  0.000000  -34.728176  21.596608  35.000000  45.647860  -0.873967  -14.892557  33.930079  46.773484  -52.906543  13.980904  127.464392
0.503430  0.000000  0.000000  0.000000  -34.728176  21.596608  40.000000  45.485151  -4.445399  -18.396171  33.930079  46.773484  -52.906543  13.980904  127.464392
0.503511  0.000000  0.000000  0.000000  -34.728176  21.596608  45.000000  45.101379  -8.000116  -21.933848  33.930079  46.773484  -52.906543  13.980904  127.464392
0.503592  0.000000  0.000000  0.000000  -34.728176  21.596608  50.000000  44.490543  -11.524214  -25.533529  33.930079  46.773484  -52.906543  13.980904  127.464392
0.503673  0.000000  0.000000  0.000000  -63.148929  18.254899  -20.000000  36.614075  30.314266  27.438519  39.490832  31.935890  -49.671471  26.781560  119.954623
0.503753  0.000000  0.000000  0.000000  -63.148929  18.254899  -15.000000  38.789039  27.254759  22.925012  39.490832  31.935890  -49.671471  26.781560  119.954623
0.503834  0.000000  0.000000  0.000000  -63.148929  18.254899  -10.000000  40.637781  24.058406  18.658428  39.490832  31.935890  -49.671471  26.781560  119.954623
0.503915  0.000000  0.000000  0.000000  -63.148929  18.254899  -5.000000  42.184716  20.749624  14.602814  39.490832  31.935890  -49.671471  26.781560  119.954623
0.503995  0.000000  0.000000  0.000000  -63.148929  18.254899  0.000000  43.451952  17.349877  10.723256  39.490832  31.935890  -49.671471  26.781560  119.954623
0.504076  0.000000  0.000000  0.000000  -63.148929  18.254899  5.000000  44.458533  13.878124  6.986441  39.490832  31.935890  -49.671471  26.781560  119.954623
0.504157  0.000000  0.000000  0.000000  -63.148929  18.254899  10.000000  45.220043  10.351312  3.360799  39.490832  31.935890  -49.671471  26.781560  119.954623
0.504238  0.000000  0.000000  0.000000  -63.148929  18.254899  15.000000  45.748550  6.784867  -0.183727  39.490832  31.935890  -49.671471  26.781560  119.954623
0.504318  0.000000  0.000000  0.000000  -63.148929  18.254899  20.000000  46.052475  3.193094  -3.675925  39.490832  31.935890  -49.671471  26.781560  119.954623
0.504399  0.000000  0.000000  0.000000  -63.148929  18.254899  25.000000  46.136751  -0.410441  -7.143725  39.490832  31.935890  -49.671471  26.781560  119.954623
0.504480  0.000000  0.000000  0.000000  -63.148929  18.254899  30.000000  46.002705  -4.012465  -10.614649  39.490832  31.935890  -49.671471  26.781560  119.954623
0.504560  0.000000  0.000000  0.000000  -63.148929  18.254899  35.000000  45.648195  -7.599688  -14.116286  39.490832  31.935890  -49.671471  26.781560  119.954623
0.504641  0.000000  0.000000  0.000000  -63.148929  18.254899  40.000000  45.067508  -11.158396  -17.676714  39.490832  31.935890  -49.671471  26.781560  119.954623
0.504722  0.000000  0.000000  0.000000  -63.148929  18.254899  45.000000  44.251377  -14.674073  -21.324982  39.490832  31.935890  -49.671471  26.781560  119.954623
0.504803  0.000000  0.000000  0.000000  -63.148929  18.254899  50.000000  43.186945  -18.130984  -25.091458  39.490832  31.935890  -49.671471  26.781560  119.954623
0.504883  0.000000  0.000000  0.000000  -44.265912  13.544168  -20.000000  35.130544  33.901529  28.688358  44.030230  21.537621  -37.622256  20.988172  128.751416
